<svg version="1.1" id="Layer_1" xmlns="http://www.w3.org/2000/svg" xmlns:xlink="http://www.w3.org/1999/xlink" x="0px" y="0px"
	 viewBox="0 0 1064.231 288.67" style="enable-background:new 0 0 1064.231 288.67;"
	 xml:space="preserve">
<style type="text/css">
<![CDATA[
	.st0{fill-rule:evenodd;clip-rule:evenodd;fill:none;}
	.st1{font-family:'New Times Roman';}
	.st2{fill-rule:evenodd;clip-rule:evenodd;fill:#fcfce3;stroke:#fcfce3;stroke-miterlimit:10;}
	.st3{letter-spacing:1.80;}
	.st4{fill:#fcfce3;stroke:#fcfce3;stroke-width:0;stroke-miterlimit:10;}
	.st5{font-size:52px;}
]]>



#logo {
			margin: auto;
			stroke-dasharray: 1400;
			stroke-dashoffset:0;
			-webkit-animation: dash 6s linear forwards;
			-o-animation: dash 6s linear forwards;
			-moz-animation: dash 6s linear forwards;
			animation: dash 6s linear forwards;
			
		}	

		@-webkit-keyframes dash {
			from {
				stroke-dashoffset: 1400;
				fill: none;
			}

			to {
				stroke-dashoffset:0;
				fill: #fcfce3;
				
			}
		}
		
</style>
<g>
	<path id="logo" class="st2" d="M1008.565,120.609c0-6.03,1.035-10.858,3.104-14.478c1.896-4.138,4.309-6.205,7.24-6.205
		s5.344,2.067,7.24,6.205c2.068,3.619,3.104,8.447,3.104,14.478v23.27c0,14.136-1.207,28.442-3.623,42.92
		c-2.066,14.478-4.309,21.718-6.721,21.718s-4.824-7.24-7.24-21.718c-2.068-14.133-3.104-28.438-3.104-42.92V120.609z
		 M889.636,156.809c0-3.622,0.861-7.069,2.588-10.343c8.102,0,15.338-1.726,21.717-5.17c6.205-3.622,9.309-7.931,9.309-12.93
		c0-3.618-1.551-6.721-4.654-9.308c-2.932-2.412-6.551-3.618-10.859-3.618c-1.725,0-3.877,0.431-6.465,1.291
		c-2.586,0.861-4.738,1.295-6.465,1.295c-1.377,0-2.582-0.174-3.617-0.519c-1.035-0.517-1.553-1.207-1.553-2.067
		c0-3.448,2.588-6.896,7.758-10.344c5.689-3.447,10.859-5.17,15.512-5.17c8.447,0,15.688,2.758,21.719,8.273
		c6.205,5.688,9.307,12.409,9.307,20.166c0,8.446-3.273,15.688-9.822,21.718c-6.725,6.205-14.652,9.308-23.789,9.308
		c-0.17,5.174,2.07,9.482,6.725,12.93s10.168,5.17,16.545,5.17c6.033,0,11.635-0.946,16.807-2.843
		c4.654-1.726,8.533-4.224,11.635-7.5v-46.539c0-6.03,1.033-10.858,3.104-14.478c1.896-4.138,4.309-6.205,7.236-6.205
		c2.932,0,5.344,2.067,7.24,6.205c2.068,3.619,3.104,8.447,3.104,14.478v23.27c0,14.136-1.207,28.442-3.619,42.92
		c-2.07,14.478-4.309,21.718-6.725,21.718c-2.928,0-5.084-6.376-6.461-19.131c-1.207-7.757-2.932-10.258-5.174-7.5
		c-2.238,2.757-6.807,5.774-13.701,9.051c-6.721,3.103-13.787,4.654-21.201,4.654c-9.824,0-18.271-3.793-25.338-11.378
		C893.255,176.63,889.636,167.493,889.636,156.809z M788.804,43.855V18.098c3.793-0.605,7.758-0.907,11.895-0.907
		c18.27,0,33.783,4.999,46.537,14.996c12.928,10.344,19.393,22.579,19.393,36.715c0,1.723-0.346,2.929-1.035,3.619
		c-0.861,1.035-1.813,1.551-2.844,1.551c-0.689,0-1.467-0.69-2.328-2.067c-1.895-3.792-2.846-5.688-2.846-5.688
		c-3.617-7.928-9.307-14.133-17.064-18.616c-8.098-4.824-17.063-7.24-26.887-7.24C804.3,40.459,796.026,41.593,788.804,43.855
		L788.804,43.855z M794.233,169.734c0-7.585,2.842-14.651,8.531-21.201c5.859-6.722,13.357-11.721,22.494-14.994
		c6.549-2.415,12.15-5.344,16.805-8.791c4.311-3.277,6.465-6.38,6.465-9.308c0-2.587-0.26-4.654-0.777-6.205
		c-0.516-1.896-1.119-3.277-1.811-4.139c-0.861-1.032-0.945-2.067-0.256-3.103c0.689-1.377,1.637-2.067,2.844-2.067
		c4.482,0,9.047,2.587,13.701,7.757s6.98,10.343,6.98,15.513c0,4.654-3.359,9.567-10.082,14.737
		c-6.031,4.825-14.738,9.393-26.113,13.702c-5.344,2.07-9.738,4.999-13.186,8.792c-3.273,3.792-4.914,7.756-4.914,11.894
		c0,5.341,2.502,9.653,7.5,12.927c5.516,3.447,11.635,5.17,18.355,5.17c5.861,0,11.98-0.861,18.357-2.584
		c6.033-1.896,11.117-4.482,15.256-7.756c1.205-0.864,2.498-1.295,3.877-1.295c0.861,0,1.553,0.26,2.068,0.775
		c0.346,0.69,0.516,1.295,0.516,1.812c0,5.859-4.48,11.805-13.441,17.839c-8.793,6.205-17.67,9.308-26.633,9.308
		c-12.58,0-23.527-3.792-32.836-11.375C799.146,189.73,794.577,180.594,794.233,169.734z M788.804,18.098v25.758
		c-3.326,1.042-6.428,2.323-9.309,3.844c-9.652,4.999-15.082,11.204-16.287,18.616c-0.172,2.067-0.947,3.878-2.328,5.429
		c-1.205,1.552-2.586,2.327-4.137,2.327c-2.414,0-4.48-1.722-6.205-5.17c-1.723-3.621-2.672-7.931-2.844-12.93
		c0-10.685,5.17-19.821,15.514-27.403C770.63,23.124,779.161,19.634,788.804,18.098L788.804,18.098z M775.878,120.609v23.27
		c0,14.136-1.207,28.442-3.623,42.92c-2.066,14.478-4.309,21.718-6.721,21.718s-4.824-7.24-7.24-21.718
		c-2.068-14.133-3.104-28.438-3.104-42.92v-23.27c0-6.03,1.035-10.858,3.104-14.478c1.896-4.138,4.309-6.205,7.24-6.205
		s5.344,2.067,7.24,6.205C774.843,109.751,775.878,114.579,775.878,120.609z M491.472,46.621V25.489
		c3.629,1.904,7.078,4.137,10.345,6.697c12.927,10.344,19.392,22.579,19.392,36.715c0,1.723-0.346,2.929-1.035,3.619
		c-0.861,1.035-1.811,1.551-2.844,1.551c-0.689,0-1.466-0.69-2.326-2.067c-1.896-3.792-2.847-5.688-2.847-5.688
		c-3.618-7.928-9.823-14.133-18.615-18.616C492.86,47.326,492.17,46.966,491.472,46.621L491.472,46.621z M504.399,120.609
		c0-6.03,1.035-10.858,3.104-14.478c1.896-4.138,4.309-6.205,7.24-6.205s5.344,2.067,7.24,6.205
		c2.067,3.619,3.103,8.447,3.103,14.478v23.27c0,14.136-1.206,28.442-3.622,42.92c-2.066,14.478-4.309,21.718-6.721,21.718
		s-4.825-7.24-7.24-21.718c-2.068-14.133-3.104-28.438-3.104-42.92V120.609L504.399,120.609z M606.009,156.809
		c0-10.688,3.793-19.824,11.379-27.407c7.582-7.585,16.719-11.375,27.402-11.375c2.762,0,5.174,1.292,7.24,3.878
		c2.068,2.584,3.104,5.601,3.104,9.049c-0.172,1.035-1.291,2.067-3.361,3.103c-1.207,0.689-3.965,1.811-8.273,3.362
		c-5,1.722-9.049,4.653-12.15,8.788c-3.104,4.309-4.654,8.706-4.654,13.186c0,5.86,2.326,10.688,6.98,14.48
		c4.48,4.136,9.91,6.206,16.289,6.206c2.928,0,6.119-0.174,9.564-0.52c2.586-0.516,4.568-1.206,5.947-2.067l-1.551-15.513
		c-0.861-4.999-1.207-8.446-1.035-10.343v-28.439c0-6.379,1.035-11.894,3.104-16.548c1.896-4.48,4.309-6.722,7.24-6.722
		c2.928,0,5.344,2.241,7.236,6.722c2.07,4.654,3.104,10.169,3.104,16.548v10.343c1.895-2.415,4.998-4.312,9.307-5.688
		c4.139-1.381,8.793-2.067,13.961-2.067c8.102,0,14.738,3.273,19.91,9.823c5.689,6.896,8.533,14.823,8.533,23.785
		c0,10.172-3.533,18.616-10.604,25.34c-6.891,7.237-15.424,10.859-25.596,10.859c-1.377,0-2.498-0.431-3.359-1.295
		c-1.205-0.861-1.811-1.723-1.811-2.583c0-0.69,0.605-1.466,1.811-2.327c0.691-0.69,2.242-1.64,4.654-2.847
		c4.309-1.896,7.758-5.255,10.34-10.083c2.242-4.825,3.537-10.514,3.879-17.064c0-5.859-1.723-10.685-5.17-14.478
		c-3.619-4.138-7.928-6.205-12.926-6.205c-2.932,0-5.43,0.517-7.5,1.552c-2.238,0.861-4.051,2.067-5.43,3.618v7.757
		c0,13.101-1.117,25.685-3.359,37.75c-2.412,12.755-4.74,19.131-6.98,19.131c-1.553,0-3.018-1.896-4.398-5.688
		c-2.238-9.995-4.006-14.393-5.297-13.187c-1.295,1.206-4.182,2.501-8.664,3.879c-4.135,1.38-8.357,2.07-12.666,2.07
		c-9.828,0-18.271-3.793-25.342-11.378C609.802,176.63,606.183,167.493,606.009,156.809L606.009,156.809z M602.134,242.129
		c8.098,9.824,18.01,17.409,29.73,22.75c11.379,5.519,23.443,8.276,36.199,8.276c10.684,0,19.82-3.622,27.404-10.859
		c7.584-7.066,11.377-15.513,11.377-25.34c0-7.756-3.102-14.478-9.307-20.167c-6.035-5.515-13.275-8.272-21.719-8.272
		c-7.24,0-13.359,1.552-18.359,4.654c-4.998,3.103-7.496,6.721-7.496,10.859c0,2.067,0.689,3.964,2.066,5.688
		c1.035,1.377,2.502,2.067,4.398,2.067c1.896-2.412,4.395-4.309,7.496-5.688c3.273-1.378,6.377-2.067,9.309-2.067
		c3.617,0,6.635,1.206,9.047,3.618c2.588,2.587,3.879,5.689,3.879,9.308c0,4.138-1.723,7.757-5.17,10.859s-7.756,4.653-12.926,4.653
		c-12.756,0-24.305-1.551-34.648-4.653c-10.168-3.103-18.871-7.583-26.111-13.442c-1.381-0.69-2.758-0.605-4.139,0.256
		c-1.377,0.864-2.152,2.241-2.326,4.138c0,0.861,0.086,1.466,0.26,1.812C601.442,241.094,601.788,241.61,602.134,242.129z
		 M491.472,25.489v21.132c-8.305-4.106-17.786-6.162-28.437-6.162c-8.963,0-16.634,2.416-23.013,7.24
		c-6.721,4.999-10.685,11.204-11.891,18.616c-0.174,2.067-0.95,3.878-2.327,5.429c-1.209,1.552-2.587,2.327-4.138,2.327
		c-2.413,0-4.483-1.722-6.205-5.17c-1.726-3.621-2.672-7.931-2.843-12.93c0-10.685,4.22-19.821,12.667-27.403
		c8.102-7.586,18.099-11.378,29.994-11.378C468.869,17.19,480.934,19.957,491.472,25.489L491.472,25.489z M183.801,143.879
		c0-12.41,2.5-22.75,7.5-31.025c5.341-8.617,11.46-12.927,18.355-12.927c3.103,0,5.515,1.035,7.24,3.103
		c2.067,2.067,3.103,4.48,3.103,7.241c0,1.377-0.431,2.843-1.295,4.394c-0.861,1.896-2.152,3.879-3.878,5.945
		c-6.892,8.792-10.34,18.271-10.34,28.442c0,7.928,2.498,14.649,7.497,20.167c5.169,5.515,11.29,8.272,18.355,8.272
		c4.312,0,8.532-0.69,12.67-2.067c4.483-1.38,8.016-3.276,10.6-5.689v-49.125c0-5.515,1.035-10.339,3.103-14.478
		c1.896-4.138,4.312-6.205,7.24-6.205c2.932,0,5.344,2.067,7.24,6.205c2.067,4.139,3.103,8.963,3.103,14.478v23.27
		c0,15.168-1.121,29.475-3.362,42.92c-2.412,14.478-4.739,21.718-6.98,21.718c-2.586,0-4.568-5.515-5.945-16.548
		c-1.207-7.066-2.889-9.652-5.042-7.756c-2.156,1.896-5.991,3.792-11.506,5.688c-5.515,2.067-10.945,3.103-16.289,3.103
		c-11.375,0-21.028-4.824-28.958-14.478C188.283,169.219,184.146,157.67,183.801,143.879L183.801,143.879z M238.096,233.078
		c0,6.034,2.156,11.204,6.464,15.513c4.309,4.312,9.479,6.465,15.513,6.465c5.344,0,9.912-1.206,13.702-3.619
		c3.792-2.415,5.689-5.518,5.689-9.308c0.171-1.035-0.431-1.896-1.811-2.586c-1.207-0.517-2.327-0.517-3.359,0
		c-2.757,1.722-6.205,2.586-10.343,2.586c-2.067,0-3.964-0.864-5.689-2.586c-1.377-1.896-2.067-4.05-2.067-6.465
		c0.171-1.896,0.861-3.359,2.067-4.395c1.726-1.38,3.622-2.067,5.689-2.067c11.549,0,23.01,2.929,34.388,8.788
		c11.204,5.689,21.288,13.962,30.25,24.821c0.687,0.864,1.722,1.811,3.103,2.846c0.861,0.69,1.982,1.032,3.359,1.032
		c1.725,0,2.931-0.946,3.622-2.843c0.516-1.723,0.171-3.362-1.035-4.914c-12.411-14.993-25.251-26.802-38.522-35.42
		c-12.755-8.272-24.476-12.41-35.164-12.41c-7.066,0-13.186,2.413-18.356,7.24C240.597,220.756,238.096,226.528,238.096,233.078
		L238.096,233.078z M356.509,156.809c0-10.688,3.793-19.824,11.378-27.407c7.583-7.585,16.719-11.375,27.404-11.375
		c2.761,0,5.173,1.292,7.24,3.878c2.067,2.584,3.103,5.601,3.103,9.049c-0.171,1.035-1.292,2.067-3.362,3.103
		c-1.207,0.689-3.964,1.811-8.273,3.362c-4.999,1.722-9.048,4.653-12.15,8.788c-3.103,4.309-4.654,8.706-4.654,13.186
		c0,5.86,2.327,10.688,6.981,14.48c4.479,4.136,9.909,6.206,16.288,6.206c2.929,0,6.12-0.174,9.564-0.52
		c2.586-0.516,4.568-1.206,5.949-2.067l-1.551-15.513c-0.861-4.999-1.207-8.446-1.035-10.343v-28.439
		c0-6.379,1.035-11.894,3.103-16.548c1.896-4.48,4.309-6.722,7.24-6.722c2.928,0,5.344,2.241,7.237,6.722
		c2.07,4.654,3.103,10.169,3.103,16.548v10.343c1.896-2.415,4.999-4.312,9.308-5.688c4.138-1.381,8.792-2.067,13.962-2.067
		c8.101,0,14.736,3.273,19.91,9.823c5.688,6.896,8.531,14.823,8.531,23.785c0,10.172-3.533,18.616-10.602,25.34
		c-6.893,7.237-15.425,10.859-25.597,10.859c-1.377,0-2.498-0.431-3.359-1.295c-1.207-0.861-1.811-1.723-1.811-2.583
		c0-0.69,0.604-1.466,1.811-2.327c0.69-0.69,2.241-1.64,4.653-2.847c4.309-1.896,7.757-5.255,10.34-10.083
		c2.241-4.825,3.536-10.514,3.878-17.064c0-5.859-1.722-10.685-5.17-14.478c-3.619-4.138-7.927-6.205-12.926-6.205
		c-2.932,0-5.429,0.517-7.5,1.552c-2.238,0.861-4.049,2.067-5.429,3.618v7.757c0,13.101-1.118,25.685-3.359,37.75
		c-2.412,12.755-4.739,19.131-6.98,19.131c-1.551,0-3.017-1.896-4.397-5.688c-2.238-9.995-4.007-14.393-5.298-13.187
		c-1.294,1.206-4.181,2.501-8.663,3.879c-4.135,1.38-8.358,2.07-12.667,2.07c-9.827,0-18.27-3.793-25.339-11.378
		C360.302,176.63,356.683,167.493,356.509,156.809L356.509,156.809z M142.691,120.609c0-6.03,1.035-10.858,3.103-14.478
		c1.896-4.138,4.309-6.205,7.241-6.205c2.931,0,5.344,2.067,7.24,6.205c2.067,3.619,3.103,8.447,3.103,14.478v23.27
		c0,14.136-1.207,28.442-3.622,42.92c-2.068,14.478-4.309,21.718-6.721,21.718c-2.413,0-4.825-7.24-7.241-21.718
		c-2.067-14.133-3.103-28.438-3.103-42.92V120.609z M67.066,118.327c1.889-0.2,3.828-0.301,5.817-0.301
		c4.482,0,8.102,1.032,10.859,3.103c2.932,1.894,4.483,4.309,4.654,7.237c0,2.758-0.861,5.173-2.586,7.24
		c-1.551,1.896-3.273,2.498-5.17,1.812c-1.035-0.346-3.274-0.26-6.721,0.256c-7.585,2.413-1.035,14.823,19.647,37.231l5.173-5.171
		l-1.551-12.926c-0.861-6.896-1.207-11.204-1.035-12.93v-23.27c0-6.03,1.035-10.858,3.103-14.478
		c1.896-4.138,4.309-6.205,7.24-6.205c2.928,0,5.344,2.067,7.237,6.205c2.07,3.619,3.103,8.447,3.103,14.478v23.27
		c0,14.136-1.206,28.442-3.619,42.92c-2.067,14.478-4.309,21.718-6.721,21.718c-2.413,0-4.483-5.515-6.205-16.548
		c-1.035-6.205-2.458-8.272-4.267-6.205c-1.811,2.07-5.386,4.309-10.73,6.725c-5.17,2.067-11.03,3.103-17.58,3.103
		c-0.216,0-0.432-0.003-0.647-0.006v-16.769c2.259,0.668,4.628,1.002,7.109,1.002c3.621,0,7.069-0.775,10.343-2.327L67.066,157.66
		V118.327L67.066,118.327z M28.932,156.809c-0.174-10.688,4.135-19.824,12.926-27.407c7.074-6.353,15.476-10.042,25.208-11.074
		v39.333l-10.987-12.486c-2.586,2.929-4.223,5.084-4.913,6.462c-1.035,1.725-1.552,3.447-1.552,5.173
		c0,6.205,2.413,11.546,7.241,16.028c3.105,2.891,6.509,4.884,10.211,5.979v16.769c-10.41-0.15-19.328-3.94-26.76-11.372
		C32.722,176.63,28.932,167.493,28.932,156.809L28.932,156.809z M289.848,79.255v12.93H20.698v-12.93H289.848z M540.849,79.255
		v12.93H347.688v-12.93H540.849z"/>
	<rect id="logo" x="597.188" y="79.67" class="st2" width="447.576" height="12.93"/>
</g>
<text id="logoDate" transform="matrix(1.07 0 0 1 731.2529 268.9082)" class="st4 st1 st5 st3">SINCE 1964</text>
</svg>
